<svg xmlns="http://www.w3.org/2000/svg" viewBox="0 0 1200 800" role="img" aria-labelledby="title desc">
  <title id="title">Blogging platform illustration</title>
  <desc id="desc">Article cards, navigation menu, and analytics widgets in a purple accent palette.</desc>
  <defs>
    <linearGradient id="bp-bg" x1="0%" y1="0%" x2="100%" y2="100%">
      <stop offset="0%" stop-color="#8b5cf6" />
      <stop offset="100%" stop-color="#ec4899" />
    </linearGradient>
  </defs>
  <rect width="1200" height="800" rx="40" fill="url(#bp-bg)" />
  <rect x="160" y="160" width="880" height="480" rx="32" fill="#0f172a" opacity="0.18" />
  <rect x="200" y="200" width="800" height="420" rx="28" fill="#1e293b" opacity="0.85" />
  <rect x="240" y="240" width="720" height="64" rx="18" fill="#312e81" opacity="0.6" />
  <rect x="260" y="256" width="180" height="32" rx="12" fill="#8b5cf6" opacity="0.4" />
  <g transform="translate(240 320)">
    <rect width="220" height="240" rx="22" fill="#f8fafc" />
    <rect x="24" y="32" width="172" height="36" rx="12" fill="#8b5cf6" opacity="0.3" />
    <rect x="24" y="88" width="172" height="96" rx="18" fill="#8b5cf6" opacity="0.15" />
  </g>
  <g transform="translate(480 320)">
    <rect width="220" height="240" rx="22" fill="#fdf2f8" />
    <rect x="24" y="32" width="172" height="36" rx="12" fill="#ec4899" opacity="0.25" />
    <rect x="24" y="88" width="172" height="96" rx="18" fill="#ec4899" opacity="0.18" />
  </g>
  <g transform="translate(720 320)">
    <rect width="220" height="240" rx="22" fill="#ede9fe" />
    <rect x="40" y="48" width="140" height="140" rx="20" fill="#8b5cf6" opacity="0.3" />
    <rect x="40" y="204" width="140" height="24" rx="12" fill="#8b5cf6" opacity="0.25" />
  </g>
</svg>
